<svg width="18" height="18" viewBox="0 0 18 18" fill="none" xmlns="http://www.w3.org/2000/svg">
<path d="M2.89198 12.1883L3.61702 11.9965L2.89198 12.1883ZM2.89681 8.02741L2.17176 7.83555L2.17176 7.83555L2.89681 8.02741ZM15.1032 8.02742L15.8282 7.83556L15.1032 8.02742ZM15.108 12.1883L15.8331 12.3802L15.108 12.1883ZM11.5438 15.4883L11.6965 16.2226L11.6965 16.2226L11.5438 15.4883ZM6.45618 15.4883L6.30349 16.2226L6.3035 16.2226L6.45618 15.4883ZM6.29758 4.77866L6.45026 5.51296L6.45026 5.51296L6.29758 4.77866ZM11.7024 4.77866L11.8551 4.04437L11.7024 4.77866ZM6.33965 15.4641L6.49233 14.7298L6.49233 14.7298L6.33965 15.4641ZM11.6604 15.4641L11.5077 14.7298L11.5077 14.7298L11.6604 15.4641ZM2.6336 9.74637H1.8836L3.38281 9.78067L2.6336 9.74637ZM4.95954 2.39298L4.75949 1.67015L4.75949 1.67015L4.95954 2.39298ZM9.93471 4.53361L9.93485 5.28361L11.0607 5.28339L10.6268 4.24451L9.93471 4.53361ZM2.6336 10.4973L3.38281 10.463L1.8836 10.4973H2.6336ZM2.6336 10.5103H1.8836V10.6407L1.92755 10.7633L2.6336 10.5103ZM2.6343 10.5123L1.92825 10.7653L3.38345 10.4766L2.6343 10.5123ZM11.0815 5.83714C10.673 5.76874 10.2864 6.04447 10.218 6.45299C10.1496 6.86152 10.4253 7.24815 10.8338 7.31655L11.0815 5.83714ZM10.9897 6.5822L11.1135 5.8425L10.9897 6.5822ZM12.5569 9.3303C12.5569 9.74451 12.8927 10.0803 13.3069 10.0803C13.7211 10.0803 14.0569 9.74451 14.0569 9.3303H12.5569ZM11.5077 14.7298L11.3911 14.754L11.6965 16.2226L11.813 16.1984L11.5077 14.7298ZM6.60886 14.754L6.49233 14.7298L6.18696 16.1984L6.30349 16.2226L6.60886 14.754ZM3.61702 11.9965C3.29158 10.7666 3.29549 9.45258 3.62185 8.21927L2.17176 7.83555C1.77977 9.31689 1.77403 10.8954 2.16694 12.3802L3.61702 11.9965ZM14.3782 8.21928C14.7045 9.45258 14.7084 10.7666 14.383 11.9965L15.8331 12.3802C16.226 10.8954 16.2202 9.31689 15.8282 7.83556L14.3782 8.21928ZM11.3911 14.754C9.81376 15.082 8.18625 15.082 6.60886 14.754L6.3035 16.2226C8.08231 16.5925 9.9177 16.5925 11.6965 16.2226L11.3911 14.754ZM6.45026 5.51296C8.13227 5.16322 9.86773 5.16322 11.5497 5.51296L11.8551 4.04437C9.97167 3.65275 8.02833 3.65275 6.1449 4.04437L6.45026 5.51296ZM6.49233 14.7298C5.09803 14.4399 3.98391 13.3829 3.61702 11.9965L2.16694 12.3802C2.67839 14.313 4.2335 15.7922 6.18697 16.1984L6.49233 14.7298ZM11.813 16.1984C13.7665 15.7922 15.3216 14.313 15.8331 12.3802L14.383 11.9965C14.0161 13.3829 12.902 14.4399 11.5077 14.7298L11.813 16.1984ZM11.5497 5.51296C12.9138 5.79659 14.0169 6.85392 14.3782 8.21928L15.8282 7.83556C15.3247 5.93278 13.7873 4.44612 11.8551 4.04437L11.5497 5.51296ZM6.1449 4.04437C4.21275 4.44612 2.67527 5.93278 2.17176 7.83555L3.62185 8.21927C3.98315 6.85392 5.0862 5.79659 6.45026 5.51296L6.1449 4.04437ZM1.8836 5.43909V9.74637H3.3836V5.43909H1.8836ZM4.75949 1.67015C3.07646 2.13594 1.8836 3.67882 1.8836 5.43909H3.3836C3.3836 4.36103 4.11884 3.40384 5.15959 3.11581L4.75949 1.67015ZM6.0073 1.5C5.58629 1.5 5.16358 1.55832 4.75949 1.67015L5.15959 3.11581C5.43516 3.03954 5.72334 3 6.0073 3V1.5ZM6.65078 1.5H6.0073V3H6.65078V1.5ZM10.6268 4.24451C10.2902 3.43893 9.67924 2.76106 8.98608 2.28569C8.29587 1.81235 7.4655 1.5 6.65078 1.5V3C7.09698 3 7.63699 3.17934 8.13772 3.52274C8.63551 3.86412 9.03603 4.32805 9.24267 4.8227L10.6268 4.24451ZM6.45026 5.51296C7.25495 5.34564 9.02332 5.28378 9.93485 5.28361L9.93457 3.78361C9.03669 3.78377 7.1213 3.84135 6.1449 4.04437L6.45026 5.51296ZM3.38281 9.78067C3.40694 9.25362 3.4869 8.72927 3.62185 8.21927L2.17176 7.83555C2.00931 8.44945 1.91334 9.07948 1.88438 9.71207L3.38281 9.78067ZM1.8836 10.4973V10.5103H3.3836V10.4973H1.8836ZM1.92755 10.7633L1.92825 10.7653L3.34034 10.2593L3.33964 10.2574L1.92755 10.7633ZM3.38345 10.4766C3.38323 10.472 3.38302 10.4675 3.38281 10.463L1.88438 10.5317C1.88463 10.5371 1.88489 10.5426 1.88515 10.548L3.38345 10.4766ZM10.8338 7.31655L10.8658 7.3219L11.1135 5.8425L11.0815 5.83714L10.8338 7.31655ZM10.8658 7.3219C11.8392 7.48488 12.5569 8.33231 12.5569 9.3303H14.0569C14.0569 7.60447 12.8145 6.12731 11.1135 5.8425L10.8658 7.3219Z" fill="#F90000"/>
</svg>
