<?xml version="1.0" encoding="UTF-8"?>
<svg width="24px" height="24px" viewBox="0 0 24 24" version="1.1" xmlns="http://www.w3.org/2000/svg" xmlns:xlink="http://www.w3.org/1999/xlink">
    <title>D1432915-B4B2-43A8-9325-B15D4EF2FE47@1,5x</title>
    <g id="Web" stroke="none" stroke-width="1" fill="none" fill-rule="evenodd">
        <g id="1.-User-management---List" transform="translate(-1198.000000, -340.000000)">
            <g id="Group-7" transform="translate(1198.000000, 301.000000)">
                <g id="element-icon/ic_edit" transform="translate(0.000000, 39.000000)">
                    <rect id="Rectangle" fill="#D4F0FF" x="0" y="0" width="24" height="24" rx="8"></rect>
                    <g id="edit-2-outline" transform="translate(4.000000, 4.000000)" fill="#0D5EA8" fill-rule="nonzero">
                        <rect id="Rectangle" opacity="0" x="0" y="0" width="16" height="16"></rect>
                        <path d="M12.6666667,13.3333333 L3.33333333,13.3333333 C2.9651435,13.3333333 2.66666667,13.6318102 2.66666667,14 C2.66666667,14.3681898 2.9651435,14.6666667 3.33333333,14.6666667 L12.6666667,14.6666667 C13.0348565,14.6666667 13.3333333,14.3681898 13.3333333,14 C13.3333333,13.6318102 13.0348565,13.3333333 12.6666667,13.3333333 Z" id="Path"></path>
                        <path d="M3.33333333,12.0000112 L3.39333333,12.0000112 L6.17333333,11.7466667 C6.47786431,11.7163303 6.76268993,11.5821562 6.98,11.3666667 L12.98,5.36666667 C13.46486,4.8544412 13.443991,4.04651099 12.9333333,3.56 L11.1066667,1.73333333 C10.6131493,1.2697693 9.85054886,1.24970086 9.33333333,1.68666667 L3.33333333,7.68666667 C3.11784379,7.90397674 2.98366974,8.18880236 2.95333333,8.49333333 L2.66666667,11.2733333 C2.64848401,11.4710298 2.71935795,11.6665441 2.86,11.8066667 C2.98581255,11.9314577 3.15613134,12.0010245 3.33333333,12.0000112 Z M10.18,2.66666667 L12,4.48666667 L10.6666667,5.78666667 L8.88,4 L10.18,2.66666667 Z M4.24666667,8.60666667 L8,4.88 L9.8,6.68 L6.06666667,10.4133333 L4.06666667,10.6 L4.24666667,8.60666667 Z" id="Shape"></path>
                    </g>
                </g>
            </g>
        </g>
    </g>
</svg>