<?xml version="1.0" encoding="UTF-8"?>
<svg width="24px" height="24px" viewBox="0 0 24 24" version="1.1" xmlns="http://www.w3.org/2000/svg" xmlns:xlink="http://www.w3.org/1999/xlink">
    <title>DA6ED759-3E11-4A4F-B3FF-E599A11B832C@1,5x</title>
    <g id="Web" stroke="none" stroke-width="1" fill="none" fill-rule="evenodd">
        <g id="1.-User-management---List" transform="translate(-1270.000000, -340.000000)">
            <g id="Group-7" transform="translate(1198.000000, 301.000000)">
                <g id="element-icon/ic_delete" transform="translate(72.000000, 39.000000)">
                    <rect id="Rectangle-Copy-29" fill="#F2C1C1" x="0" y="0" width="24" height="24" rx="8"></rect>
                    <g id="trash-2-outline" transform="translate(4.000000, 4.000000)" fill="#E02020" fill-rule="nonzero">
                        <rect id="Rectangle" opacity="0" x="0" y="0" width="16" height="16"></rect>
                        <path d="M14,4 L10.6666667,4 L10.6666667,2.88666667 C10.6341033,1.9980667 9.88869049,1.30334196 9,1.33333333 L7,1.33333333 C6.11130951,1.30334196 5.36589669,1.9980667 5.33333333,2.88666667 L5.33333333,4 L2,4 C1.63181017,4 1.33333333,4.29847683 1.33333333,4.66666667 C1.33333333,5.0348565 1.63181017,5.33333333 2,5.33333333 L2.66666667,5.33333333 L2.66666667,12.6666667 C2.66666667,13.7712362 3.56209717,14.6666667 4.66666667,14.6666667 L11.3333333,14.6666667 C12.4379028,14.6666667 13.3333333,13.7712362 13.3333333,12.6666667 L13.3333333,5.33333333 L14,5.33333333 C14.3681898,5.33333333 14.6666667,5.0348565 14.6666667,4.66666667 C14.6666667,4.29847683 14.3681898,4 14,4 Z M6.66666667,2.88666667 C6.66666667,2.78 6.80666667,2.66666667 7,2.66666667 L9,2.66666667 C9.19333333,2.66666667 9.33333333,2.78 9.33333333,2.88666667 L9.33333333,4 L6.66666667,4 L6.66666667,2.88666667 Z M12,12.6666667 C12,13.0348565 11.7015232,13.3333333 11.3333333,13.3333333 L4.66666667,13.3333333 C4.29847683,13.3333333 4,13.0348565 4,12.6666667 L4,5.33333333 L12,5.33333333 L12,12.6666667 Z" id="Shape"></path>
                        <path d="M6,11.3333333 C6.36818983,11.3333333 6.66666667,11.0348565 6.66666667,10.6666667 L6.66666667,8 C6.66666667,7.63181017 6.36818983,7.33333333 6,7.33333333 C5.63181017,7.33333333 5.33333333,7.63181017 5.33333333,8 L5.33333333,10.6666667 C5.33333333,11.0348565 5.63181017,11.3333333 6,11.3333333 Z" id="Path"></path>
                        <path d="M10,11.3333333 C10.3681898,11.3333333 10.6666667,11.0348565 10.6666667,10.6666667 L10.6666667,8 C10.6666667,7.63181017 10.3681898,7.33333333 10,7.33333333 C9.63181017,7.33333333 9.33333333,7.63181017 9.33333333,8 L9.33333333,10.6666667 C9.33333333,11.0348565 9.63181017,11.3333333 10,11.3333333 Z" id="Path"></path>
                    </g>
                </g>
            </g>
        </g>
    </g>
</svg>